<?xml version="1.0" standalone="no"?>
<!DOCTYPE svg PUBLIC "-//W3C//DTD SVG 20010904//EN"
 "http://www.w3.org/TR/2001/REC-SVG-20010904/DTD/svg10.dtd">
<svg version="1.0" xmlns="http://www.w3.org/2000/svg"
 width="257.000000pt" height="157.000000pt" viewBox="0 0 257.000000 157.000000"
 preserveAspectRatio="xMidYMid meet">

<g transform="translate(0.000000,157.000000) scale(0.100000,-0.100000)"
fill="#000000" stroke="none">
<path d="M0 1558 c0 -10 262 -12 1285 -10 842 1 1285 6 1285 12 0 7 -441 10
-1285 10 -1021 0 -1285 -3 -1285 -12z"/>
<path d="M170 925 l0 -455 308 0 c193 0 322 4 347 11 84 24 158 96 191 186 12
36 13 31 14 -84 l0 -123 235 0 235 0 1 203 c1 182 2 197 13 152 29 -116 104
-214 218 -282 136 -82 314 -83 454 -2 113 64 211 211 222 331 l5 58 -224 0
-224 0 -166 166 -167 167 -32 -44 c-45 -63 -68 -111 -84 -177 l-14 -57 -1 98
-1 98 -240 -3 c-191 -2 -240 0 -240 10 0 50 -87 148 -160 181 -42 19 -65 21
-367 21 l-323 0 0 -455z m859 -12 c0 -122 -1 -126 -14 -85 -7 23 -20 53 -29
67 -15 23 -14 27 9 71 14 26 25 53 25 60 0 8 2 14 5 14 3 0 5 -57 4 -127z"/>
<path d="M912 273 l1 -78 6 60 c6 63 11 64 30 3 7 -21 16 -38 21 -38 5 0 17
24 27 53 l18 52 6 -65 6 -65 1 78 c1 42 -2 77 -7 77 -5 0 -17 -22 -27 -50 -10
-27 -21 -50 -24 -50 -4 0 -13 21 -21 47 -24 76 -39 67 -37 -24z"/>
<path d="M1081 279 c-12 -39 -20 -73 -17 -76 3 -3 10 6 15 21 14 36 58 36 72
0 5 -15 12 -24 15 -21 9 9 -39 147 -51 147 -6 0 -21 -32 -34 -71z m47 14 c10
-31 10 -33 -13 -33 -22 0 -23 2 -12 35 6 19 11 34 12 32 1 -1 7 -17 13 -34z"/>
<path d="M1200 275 c0 -43 4 -75 10 -75 6 0 10 14 10 30 0 20 5 30 15 30 8 0
21 -13 30 -30 9 -16 20 -30 26 -30 5 0 2 13 -7 29 -16 27 -16 30 0 52 9 13 16
27 16 31 0 18 -35 38 -66 38 l-34 0 0 -75z m65 51 c25 -18 13 -46 -20 -46 -21
0 -25 5 -25 30 0 33 15 38 45 16z"/>
<path d="M1330 275 c0 -43 4 -75 10 -75 6 0 10 10 10 23 0 13 6 31 13 41 11
16 15 13 35 -23 13 -23 28 -41 33 -41 5 0 -2 20 -16 45 l-27 45 22 30 c31 43
8 37 -29 -7 l-30 -38 -1 38 c0 20 -4 37 -10 37 -6 0 -10 -32 -10 -75z"/>
<path d="M1460 275 l0 -75 48 1 c44 2 45 2 12 8 -29 5 -36 11 -38 34 -3 24 0
27 27 27 17 0 31 5 31 10 0 6 -13 10 -30 10 -23 0 -30 4 -30 20 0 16 7 20 35
20 19 0 35 5 35 10 0 6 -20 10 -45 10 l-45 0 0 -75z"/>
<path d="M1570 340 c0 -5 11 -10 25 -10 23 0 24 -3 28 -67 l3 -68 2 68 c2 59
4 67 21 67 11 0 23 5 26 10 4 6 -15 10 -49 10 -31 0 -56 -4 -56 -10z"/>
<path d="M0 18 c0 -17 68 -18 1285 -18 1133 0 1285 2 1285 15 0 13 -153 15
-1285 17 -1218 3 -1285 2 -1285 -14z"/>
</g>
</svg>
